<svg width="16" height="16" viewBox="0 0 16 16" fill="none" xmlns="http://www.w3.org/2000/svg">
<path fill-rule="evenodd" clip-rule="evenodd" d="M7.99998 2.66665C5.05446 2.66665 2.66665 5.05446 2.66665 7.99998C2.66665 10.9455 5.05446 13.3333 7.99998 13.3333C10.9455 13.3333 13.3333 10.9455 13.3333 7.99998C13.3333 5.05446 10.9455 2.66665 7.99998 2.66665ZM1.33331 7.99998C1.33331 4.31808 4.31808 1.33331 7.99998 1.33331C11.6819 1.33331 14.6666 4.31808 14.6666 7.99998C14.6666 11.6819 11.6819 14.6666 7.99998 14.6666C4.31808 14.6666 1.33331 11.6819 1.33331 7.99998ZM10.4714 6.19524C10.7317 6.45559 10.7317 6.8777 10.4714 7.13805L7.80472 9.80472C7.54437 10.0651 7.12226 10.0651 6.86191 9.80472L5.52857 8.47138C5.26823 8.21103 5.26823 7.78892 5.52857 7.52857C5.78892 7.26823 6.21103 7.26823 6.47138 7.52857L7.33331 8.3905L9.52857 6.19524C9.78892 5.93489 10.211 5.93489 10.4714 6.19524Z" fill="#B0B0B0"/>
</svg>
