<svg width="51" height="56" viewBox="0 0 51 56" fill="none" xmlns="http://www.w3.org/2000/svg">
<path fill-rule="evenodd" clip-rule="evenodd" d="M30.8916 15.219C30.7275 15.9223 30.2927 16.493 29.7232 16.8477C29.1537 17.2015 28.4491 17.3392 27.7458 17.1755C27.0646 17.0162 26.4856 16.6017 26.1162 16.0076C25.7468 15.4134 25.6308 14.711 25.7893 14.0294C26.1175 12.6228 27.5284 11.7454 28.935 12.0728C29.6167 12.2322 30.1957 12.6466 30.5651 13.2408C30.9345 13.8349 31.0505 14.5378 30.8916 15.219ZM26.3362 39.8531C26.273 40.1203 26.0097 40.2874 25.7421 40.2355C25.7356 40.2337 25.7295 40.2311 25.7226 40.2298L19.5156 38.7657C19.5086 38.7644 19.5021 38.7635 19.4956 38.7622C19.2332 38.689 19.0721 38.4218 19.1349 38.1546C19.1994 37.8805 19.4749 37.7103 19.7494 37.7748L25.9564 39.239C26.2306 39.3035 26.4008 39.579 26.3362 39.8531ZM25.8148 42.0643C25.762 42.2877 25.5693 42.4393 25.3519 42.4545C25.3047 42.4384 25.2571 42.4242 25.2077 42.4125L19.0007 40.9487C18.9517 40.937 18.9024 40.9288 18.8534 40.9219C18.6655 40.8114 18.5607 40.5893 18.6131 40.3658C18.6763 40.0986 18.94 39.9315 19.2077 39.9839C19.2142 39.9852 19.2202 39.9878 19.2267 39.9891L25.4342 41.4532C25.4407 41.455 25.4476 41.4554 25.4541 41.4567C25.7165 41.5299 25.8776 41.7971 25.8148 42.0643ZM25.2999 44.2469C25.2354 44.521 24.96 44.6916 24.6859 44.6267L18.4784 43.1629C18.2043 43.0984 18.0341 42.823 18.0986 42.5489C18.1631 42.2752 18.439 42.1046 18.7127 42.1691L24.9201 43.6328C25.1943 43.6978 25.3645 43.9728 25.2999 44.2469ZM21.2149 45.4525C20.8455 45.3655 20.5203 45.1598 20.279 44.8761L22.3097 45.3551C21.9671 45.501 21.5839 45.54 21.2149 45.4525ZM32.8481 25.46L33.011 24.7627C35.1849 15.4364 35.7709 8.54729 34.7523 4.28599C33.8966 0.705463 32.1358 0.124298 31.7915 0.0437493C31.4472 -0.0363666 29.611 -0.29317 27.2604 2.5399C24.4628 5.91083 21.9416 12.3491 19.7676 21.6755L19.6052 22.3731C15.8289 23.2756 12.8872 26.2343 12.0059 30.0153L10.0693 38.3231C9.92721 38.9324 10.3061 39.5417 10.9159 39.6838L13.6745 40.3268C13.9702 40.3957 14.2777 40.3429 14.5302 40.1852C14.593 40.1467 14.6523 40.1008 14.7073 40.0493L17.989 36.9693L18.3571 37.0551C18.1467 37.2747 17.989 37.5496 17.9145 37.8671C17.8149 38.288 17.8769 38.7094 18.0588 39.0679C17.7361 39.3074 17.4923 39.6573 17.3927 40.0783C17.2953 40.4923 17.3529 40.9072 17.5278 41.2623C17.213 41.5013 16.9757 41.8469 16.8782 42.2609C16.6548 43.208 17.2433 44.1603 18.1904 44.3837L18.6118 44.4829C18.892 45.6045 19.7763 46.4875 20.9078 46.7543C22.039 47.0211 23.2247 46.6261 23.9769 45.7483L24.3979 45.8475C25.345 46.0709 26.2973 45.482 26.5203 44.5349C26.6182 44.1209 26.5606 43.7056 26.3856 43.3513C26.7004 43.1118 26.9378 42.7663 27.0352 42.3523C27.1348 41.9313 27.0729 41.5095 26.8906 41.151C27.2136 40.9115 27.4574 40.562 27.5566 40.1406C27.6341 39.8137 27.6112 39.4871 27.5129 39.1892L27.8433 39.2663L29.4248 43.4804C29.5578 43.8346 29.8596 44.0997 30.2286 44.1858L32.9872 44.8289C33.292 44.8999 33.5969 44.8406 33.8429 44.6873C34.0893 44.534 34.2772 44.2872 34.3483 43.9823L36.2849 35.6745C37.1662 31.8939 35.8358 27.9396 32.8481 25.46Z" fill="white"/>
<path fill-rule="evenodd" clip-rule="evenodd" d="M43.0667 36.1323L44.1034 37.2768L43.8687 37.674L42.3552 37.3353L42.5981 36.9248L43.4092 37.1331C43.4577 37.1435 43.5058 37.1547 43.5513 37.1681L42.8774 36.4527L43.0667 36.1323ZM43.8225 34.5816L44.13 34.7271L43.8455 35.3286L44.0386 35.4204L44.269 34.9341L44.5652 35.074L44.3344 35.5599L44.5527 35.6634L44.8372 35.0614L45.1551 35.2126L44.6809 36.2155L43.3475 35.5846L43.8225 34.5816ZM44.5087 32.7846L45.8949 33.2865L45.7693 33.633L45.0193 33.791C44.9227 33.8114 44.8101 33.8257 44.6797 33.8348C44.7772 33.8447 44.8573 33.8607 44.9192 33.8837L45.5909 34.1266L45.4657 34.4722L44.0791 33.9699L44.2246 33.5676L44.8495 33.4286C44.9738 33.4013 45.0803 33.3844 45.1691 33.3787C45.0426 33.3575 44.9171 33.3246 44.7936 33.2796L44.3831 33.131L44.5087 32.7846ZM44.9524 31.1938L45.2941 31.2843L45.2157 31.5801L46.2996 31.8676L46.1901 32.2821L45.1057 31.995L45.0269 32.2903L44.6856 32.1998L44.9524 31.1938ZM45.2933 29.4254L46.2555 29.5947C46.4379 29.6267 46.5596 29.7038 46.6198 29.8259C46.6808 29.9481 46.696 30.0966 46.6652 30.2698C46.6332 30.453 46.5691 30.5933 46.4729 30.6908C46.3768 30.7882 46.2421 30.822 46.0693 30.7912L45.0837 30.618L45.1634 30.165L46.0962 30.3292C46.1663 30.3413 46.2196 30.3356 46.2568 30.3118C46.2937 30.288 46.3179 30.2443 46.3296 30.1797C46.3387 30.1256 46.3348 30.0797 46.3179 30.0416C46.301 30.0031 46.2785 29.9775 46.2504 29.9658C46.2226 29.9546 46.1668 29.9407 46.0819 29.926L45.2314 29.7766L45.2933 29.4254ZM45.9202 27.4381C46.0051 27.4451 46.0783 27.4676 46.141 27.5074C46.2034 27.5473 46.2554 27.6213 46.2965 27.73L46.9582 27.5139L46.9188 28.0141L46.3403 28.1852L46.329 28.3276L46.8911 28.3714L46.856 28.8226L45.3854 28.7079L45.4456 27.9396C45.459 27.7703 45.5088 27.6421 45.5958 27.5542C45.6824 27.4667 45.7907 27.4277 45.9202 27.4381ZM45.9042 27.9106C45.8102 27.9028 45.7587 27.9574 45.75 28.073L45.7335 28.2804L46.0142 28.303L46.0293 28.1102C46.0336 28.0535 46.0254 28.0067 46.0046 27.9699C45.9834 27.934 45.9501 27.9145 45.9042 27.9106ZM46.96 25.5738L46.9773 26.6833L45.5023 26.7058L45.4854 25.5963L45.8258 25.5907L45.8362 26.2563L46.0497 26.2533L46.0414 25.715L46.3688 25.7106L46.3775 26.2481L46.6183 26.2446L46.6083 25.579L46.96 25.5738ZM46.2941 21.6372C46.4123 21.729 46.4885 21.8564 46.5227 22.0188C46.5643 22.2154 46.5327 22.3869 46.4288 22.5345C46.3244 22.6826 46.1581 22.7805 45.9299 22.8294C45.7038 22.8767 45.509 22.858 45.3461 22.7736C45.1833 22.6887 45.0802 22.5436 45.0369 22.3397C44.9966 22.1487 45.0187 21.9906 45.1027 21.8659C45.1868 21.7412 45.3141 21.6533 45.4864 21.6035L45.596 22.0118C45.4994 22.0322 45.4332 22.0651 45.3981 22.111C45.363 22.1578 45.3509 22.2054 45.3613 22.2556C45.3907 22.3955 45.5458 22.4354 45.8264 22.3765C45.984 22.3431 46.0867 22.3024 46.1347 22.2535C46.1841 22.2054 46.201 22.1487 46.1876 22.0833C46.1624 21.9664 46.0693 21.9174 45.9074 21.9373L45.8459 21.5272C46.0269 21.5091 46.1763 21.5454 46.2941 21.6372ZM45.6443 19.6123C45.8184 19.6941 45.9362 19.8336 45.9986 20.0297C46.0609 20.2276 46.0466 20.41 45.9544 20.5754C45.8626 20.7417 45.7067 20.8595 45.4871 20.9288C45.2762 20.9954 45.0844 20.9902 44.9094 20.9149C44.7349 20.8387 44.6141 20.6953 44.547 20.4836C44.4855 20.2874 44.4993 20.1077 44.5898 19.9435C44.6799 19.7799 44.8332 19.6634 45.0484 19.5954C45.2723 19.5252 45.4702 19.5304 45.6443 19.6123ZM45.171 20.0678C44.9263 20.1449 44.8245 20.2497 44.8661 20.3805C44.9107 20.5217 45.0727 20.5485 45.3511 20.4606C45.6132 20.3779 45.7227 20.2683 45.6794 20.1328C45.6565 20.0596 45.608 20.0176 45.5348 20.0059C45.4607 19.9942 45.3395 20.0146 45.171 20.0678ZM45.0992 17.6281L45.4391 18.6046L44.046 19.0896L43.8974 18.6618L44.9484 18.2963L44.757 17.7467L45.0992 17.6281ZM44.0754 15.7065L44.2945 16.1131L44.078 16.324L44.2651 16.6727L44.563 16.6125L44.7367 16.936L43.2227 17.2343L42.9958 16.8125L44.0754 15.7065ZM43.8316 16.5471L43.5116 16.8545L43.9451 16.7571L43.8316 16.5471ZM42.943 14.1849C43.0526 14.1936 43.1674 14.2888 43.2899 14.4729L43.6797 15.0571L42.452 15.8751L42.0371 15.252C41.9509 15.1225 41.9206 15.0064 41.9461 14.9034C41.9721 14.8007 42.0271 14.721 42.1107 14.6656C42.1722 14.6245 42.2385 14.605 42.3108 14.6067C42.3831 14.608 42.452 14.6366 42.516 14.6925C42.4485 14.508 42.4905 14.3651 42.6429 14.2637C42.7343 14.2031 42.8339 14.1771 42.943 14.1849ZM42.4801 14.97C42.4459 14.9666 42.416 14.9735 42.3909 14.9904C42.3225 15.0354 42.3164 15.1 42.3723 15.1844L42.484 15.3524L42.6914 15.2147L42.5749 15.0402C42.5455 14.9965 42.5143 14.9731 42.4801 14.97ZM42.8547 14.6496C42.8265 14.6682 42.8075 14.6959 42.798 14.7327C42.788 14.7691 42.8014 14.815 42.8378 14.87L42.9521 15.0411L43.1747 14.8921L43.0522 14.7089C43.0223 14.6634 42.9889 14.6375 42.9521 14.631C42.9158 14.6249 42.8828 14.631 42.8547 14.6496Z" fill="white"/>
<path fill-rule="evenodd" clip-rule="evenodd" d="M24.1808 47.3406L23.6062 50.7691L22.2139 47.8005L19.3804 52.5823L19.5605 47.3016L16.7353 49.3521L17.8478 45.9513L17.0895 45.1445L14.7189 52.1601L18.5138 49.4015L18.3636 56L22.087 49.9658L23.9617 53.8057L25.1985 47.0158L24.1808 47.3406Z" fill="white"/>
<path fill-rule="evenodd" clip-rule="evenodd" d="M8.86459 28.8954C8.86459 28.7499 8.98238 28.6321 9.12788 28.6321C9.27339 28.6321 9.39118 28.7499 9.39118 28.8954C9.39118 29.0409 9.27339 29.1587 9.12788 29.1587C8.98238 29.1587 8.86459 29.0409 8.86459 28.8954ZM10.4041 22.8798C10.6648 22.8798 10.8761 23.0916 10.8761 23.3518C10.8761 23.613 10.6648 23.8239 10.4041 23.8239C10.1434 23.8239 9.93207 23.613 9.93207 23.3518C9.93207 23.0916 10.1434 22.8798 10.4041 22.8798ZM11.6916 18.9381C11.7786 18.9381 11.8497 19.0087 11.8497 19.0962C11.8497 19.1832 11.7786 19.2538 11.6916 19.2538C11.6045 19.2538 11.5335 19.1832 11.5335 19.0962C11.5335 19.0087 11.6045 18.9381 11.6916 18.9381ZM15.7896 14.6846C16.0503 14.6846 16.2617 14.8955 16.2617 15.1562C16.2617 15.4169 16.0503 15.6282 15.7896 15.6282C15.5289 15.6282 15.3176 15.4169 15.3176 15.1562C15.3176 14.8955 15.5289 14.6846 15.7896 14.6846ZM15.5142 19.5816C15.3691 19.5816 15.2513 19.4638 15.2513 19.3183C15.2513 19.1728 15.3691 19.0546 15.5142 19.0546C15.6597 19.0546 15.7779 19.1728 15.7779 19.3183C15.7779 19.4638 15.6597 19.5816 15.5142 19.5816ZM19.232 11.5324C19.3775 11.5324 19.4953 11.6506 19.4953 11.7961C19.4953 11.9416 19.3775 12.0594 19.232 12.0594C19.0865 12.0594 18.9687 11.9416 18.9687 11.7961C18.9687 11.6506 19.0865 11.5324 19.232 11.5324ZM10.2131 29.5974C11.1706 25.4907 14.128 22.2493 18.0576 20.9072C19.1246 16.3826 20.2848 12.5219 21.5272 9.33069C15.8329 10.6671 10.9164 14.7816 8.82951 20.708C7.28739 25.088 7.57191 29.6649 9.27642 33.617L10.2131 29.5974Z" fill="white"/>
<path fill-rule="evenodd" clip-rule="evenodd" d="M40.7699 25.2922C40.6244 25.2922 40.5066 25.1744 40.5066 25.0289C40.5066 24.8834 40.6244 24.7652 40.7699 24.7652C40.9154 24.7652 41.0332 24.8834 41.0332 25.0289C41.0332 25.1744 40.9154 25.2922 40.7699 25.2922ZM40.3018 30.3386C40.0411 30.3386 39.8302 30.1273 39.8302 29.8666C39.8302 29.6059 40.0411 29.395 40.3018 29.395C40.5625 29.395 40.7738 29.6059 40.7738 29.8666C40.7738 30.1273 40.5625 30.3386 40.3018 30.3386ZM39.896 34.619C39.896 34.7065 39.8254 34.7771 39.7384 34.7771C39.6509 34.7771 39.5799 34.7065 39.5799 34.619C39.5799 34.532 39.6509 34.4609 39.7384 34.4609C39.8254 34.4609 39.896 34.532 39.896 34.619ZM38.8974 20.3722C38.8974 20.1115 39.1087 19.9002 39.3694 19.9002C39.6301 19.9002 39.8414 20.1115 39.8414 20.3722C39.8414 20.6325 39.6301 20.8443 39.3694 20.8443C39.1087 20.8443 38.8974 20.6325 38.8974 20.3722ZM37.6835 16.2331C37.596 16.2331 37.5254 16.1625 37.5254 16.075C37.5254 15.988 37.596 15.9174 37.6835 15.9174C37.7705 15.9174 37.8416 15.988 37.8416 16.075C37.8416 16.1625 37.7705 16.2331 37.6835 16.2331ZM37.0491 24.4014C36.962 24.4014 36.891 24.3304 36.891 24.2434C36.891 24.1563 36.962 24.0853 37.0491 24.0853C37.1365 24.0853 37.2071 24.1563 37.2071 24.2434C37.2071 24.3304 37.1365 24.4014 37.0491 24.4014ZM36.8888 12.9444C36.5905 16.3496 35.9248 20.3138 34.8846 24.8297C37.8156 27.7715 39.0346 31.9856 38.0776 36.0923L37.1638 40.0114C39.427 38.0579 41.2324 35.5133 42.2964 32.4909C44.8324 25.2888 42.4406 17.5504 36.8888 12.9444Z" fill="white"/>
<path fill-rule="evenodd" clip-rule="evenodd" d="M14.218 47.8934C6.19251 43.6897 0.878019 35.1225 1.29462 25.4718C1.84894 12.6203 12.361 2.55949 25.0648 2.39449C25.3224 2.03029 25.5814 1.68081 25.8438 1.36468C25.9136 1.28023 25.9824 1.20834 26.0517 1.12909C12.2319 0.769655 0.622081 11.5506 0.0240275 25.4172C-0.417259 35.6469 5.25927 44.7199 13.8065 49.1111L14.218 47.8934Z" fill="white"/>
<path fill-rule="evenodd" clip-rule="evenodd" d="M36.4892 3.66129C36.5065 3.72841 36.526 3.78904 36.5424 3.85789C36.6468 4.29528 36.7312 4.76472 36.8049 5.25061C44.7043 9.49588 49.9157 17.9916 49.5034 27.5514C48.9599 40.1486 38.8489 50.0652 26.4842 50.6087L26.2646 51.8884C39.4062 51.4532 50.1976 40.961 50.774 27.606C51.2235 17.177 45.3158 7.95073 36.4892 3.66129Z" fill="white"/>
<path fill-rule="evenodd" clip-rule="evenodd" d="M6.38527 29.7636C6.44026 30.0837 6.50392 30.4024 6.57495 30.7194L3.53314 31.317L3.34476 30.3608L6.38527 29.7636ZM6.16389 25.1261C6.1418 25.4284 6.12621 25.7298 6.11798 26.032L3.91588 26.0671L6.11322 26.5976C6.11365 26.8185 6.11928 27.0385 6.12794 27.2585L3.94446 27.8829L6.15479 27.8479C6.17168 28.0917 6.1942 28.3346 6.22018 28.5776L3.12122 28.6265C3.08094 28.203 3.05323 27.7786 3.03764 27.3524L4.71011 26.867L3.02335 26.4564C3.02508 26.0303 3.03894 25.6029 3.06535 25.1755L6.16389 25.1261ZM4.15978 20.998C4.33603 20.9274 4.52225 20.9118 4.71712 20.9499C5.01377 21.008 5.2329 21.1587 5.37494 21.4016C5.51698 21.6446 5.55379 21.9386 5.4858 22.2842L5.37927 22.8251L6.43074 23.0316C6.37098 23.3569 6.31901 23.6825 6.2757 24.0086L3.24169 23.4119C3.31661 22.8805 3.41319 22.3496 3.52665 21.8195C3.58294 21.6151 3.65007 21.454 3.72975 21.3401C3.84018 21.1825 3.98309 21.0682 4.15978 20.998ZM4.54347 21.9044C4.34859 21.8659 4.2256 21.9771 4.1745 22.237L4.10521 22.5882L4.7076 22.7068L4.77039 22.3877C4.82626 22.1062 4.75047 21.9451 4.54347 21.9044ZM5.10051 17.0896L7.02026 17.847C7.39052 17.9934 7.61398 18.2086 7.68977 18.4922C7.76512 18.7763 7.73264 19.0951 7.59363 19.4484C7.44639 19.8204 7.25108 20.0889 7.0064 20.2531C6.76086 20.4172 6.46248 20.4302 6.1104 20.2907L4.14865 19.5169C4.25215 19.2016 4.36301 18.8902 4.47951 18.5819L6.36851 19.3276C6.50968 19.3835 6.62401 19.3934 6.71322 19.3601C6.83361 19.315 6.89424 19.1531 6.89554 19.0487C6.89684 18.9526 6.83967 18.898 6.78598 18.8612C6.73228 18.824 6.61968 18.772 6.44819 18.704L4.71942 18.0215L4.84631 17.6733C4.92989 17.478 5.01173 17.2814 5.10051 17.0896ZM6.38518 14.7209L8.31575 15.9122L8.99392 14.8642L9.70024 15.312C9.27065 15.9126 8.87613 16.5423 8.51496 17.1962L5.88889 15.5601C6.04826 15.276 6.21412 14.9963 6.38518 14.7209ZM10.1955 11.0528L9.83518 11.8154C9.62169 11.7348 9.42854 11.789 9.25662 11.9791C9.11457 12.1363 9.09206 12.2593 9.18949 12.348C9.2328 12.3875 9.28303 12.4004 9.33933 12.3866C9.39606 12.3727 9.48094 12.3247 9.5957 12.2415C9.91097 12.0142 10.1444 11.8617 10.2973 11.7851C10.4506 11.7084 10.6186 11.6807 10.8005 11.7015C10.9837 11.7231 11.1508 11.802 11.3015 11.9379C11.5397 12.154 11.6449 12.4251 11.6177 12.7521C11.5908 13.079 11.4349 13.3995 11.1512 13.713C10.6316 14.2868 10.0721 14.4241 9.47185 14.1258L9.95861 13.3454C10.199 13.461 10.425 13.4021 10.6368 13.1687C10.8005 12.9872 10.8343 12.853 10.7385 12.7651C10.6879 12.7192 10.6294 12.7049 10.5636 12.7213C10.4969 12.7378 10.4042 12.7902 10.2847 12.8785C9.83172 13.2194 9.4883 13.3909 9.25445 13.3926C9.02147 13.3939 8.81793 13.3168 8.64557 13.1605C8.42341 12.9595 8.31472 12.7084 8.32078 12.4065C8.32598 12.1047 8.47105 11.7959 8.75817 11.4802C9.19209 11.0004 9.67149 10.8583 10.1955 11.0528ZM12.9887 7.90664L14.2225 9.53364C14.465 9.85367 14.5447 10.1559 14.4615 10.4396C14.3775 10.7237 14.1835 10.9814 13.8782 11.2126C13.5568 11.4564 13.2485 11.585 12.9519 11.598C12.6544 11.611 12.3906 11.466 12.1607 11.1619L10.8901 9.48687C11.1438 9.27078 11.4032 9.06161 11.6661 8.85764L12.8869 10.4677C12.9791 10.5899 13.0723 10.6583 13.1667 10.6761C13.294 10.6999 13.4308 10.5929 13.4867 10.5037C13.5378 10.4214 13.5174 10.3439 13.4906 10.2846C13.4637 10.2244 13.394 10.1204 13.2819 9.97276L12.1572 8.48911C12.4305 8.28903 12.7072 8.09459 12.9887 7.90664ZM17.6237 5.53595L18.9242 8.34607L18.87 8.37118C18.6046 8.46776 18.3413 8.56952 18.0806 8.67692L17.1499 6.66623L17.5566 8.89908C17.3569 8.98829 17.1586 9.08097 16.962 9.17667L15.5008 7.42885L16.435 9.4469C16.2305 9.55473 16.027 9.66473 15.8265 9.77992L15.7914 9.79595L14.4897 6.9828C14.8617 6.77493 15.2414 6.57919 15.6251 6.39254L16.7398 7.7164L16.4337 6.01448C16.8247 5.84255 17.2227 5.68535 17.6237 5.53595Z" fill="white"/>
</svg>
